HIERARCHY
ROOT Hips
{
	OFFSET 0.000000 71.427986 0.000000
	CHANNELS 6 Xposition Yposition Zposition Xrotation Yrotation Zrotation
	JOINT Pelvis
	{
		OFFSET 0.000000 0.000000 0.000000
		CHANNELS 3 Xrotation Yrotation Zrotation
		JOINT LeftUpLeg
		{
			OFFSET 6.797100 -2.508499 -1.318700
			CHANNELS 3 Xrotation Yrotation Zrotation
			JOINT LeftLeg
			{
				OFFSET 0.069008 -29.241863 0.690200
				CHANNELS 3 Xrotation Yrotation Zrotation
				JOINT LeftFoot
				{
					OFFSET -0.069008 -29.568123 -0.266800
					CHANNELS 3 Xrotation Yrotation Zrotation
					JOINT LeftToeBase
					{
						OFFSET 3.145500 -8.631000 16.059900
						CHANNELS 3 Xrotation Yrotation Zrotation
						End Site
						{
							OFFSET 0.000000 18.501587 0.000000
						}
					}
				}
			}
			JOINT Left_ShortSleeve
			{
				OFFSET 0.265923 -10.480953 1.153800
				CHANNELS 3 Xrotation Yrotation Zrotation
				End Site
				{
					OFFSET 1.725763 19.823879 0.000000
				}
			}
		}
		JOINT RightUpLeg
		{
			OFFSET -6.797100 -2.508499 -1.318700
			CHANNELS 3 Xrotation Yrotation Zrotation
			JOINT RightLeg
			{
				OFFSET -0.082453 -29.241932 0.688000
				CHANNELS 3 Xrotation Yrotation Zrotation
				JOINT RightFoot
				{
					OFFSET 0.082453 -29.568058 -0.264600
					CHANNELS 3 Xrotation Yrotation Zrotation
					JOINT RightToeBase
					{
						OFFSET -3.115300 -8.682800 16.113400
						CHANNELS 3 Xrotation Yrotation Zrotation
						End Site
						{
							OFFSET 0.000000 18.567114 0.000000
						}
					}
				}
			}
			JOINT Right_ShortSleeve
			{
				OFFSET -0.265923 -10.480953 1.153800
				CHANNELS 3 Xrotation Yrotation Zrotation
				End Site
				{
					OFFSET -1.725766 19.823910 0.000000
				}
			}
		}
	}
	JOINT Spine
	{
		OFFSET 0.000000 13.368103 0.470500
		CHANNELS 3 Xrotation Yrotation Zrotation
		JOINT Spine1
		{
			OFFSET 0.147000 13.837402 0.538800
			CHANNELS 3 Xrotation Yrotation Zrotation
			JOINT Spine2
			{
				OFFSET 0.168000 16.242897 -1.435500
				CHANNELS 3 Xrotation Yrotation Zrotation
				JOINT Neck
				{
					OFFSET 0.217200 18.631500 -1.679100
					CHANNELS 3 Xrotation Yrotation Zrotation
					JOINT Head
					{
						OFFSET 0.000000 6.599396 1.385900
						CHANNELS 3 Xrotation Yrotation Zrotation
						JOINT Hat
						{
							OFFSET -0.532200 27.220596 -10.096100
							CHANNELS 3 Xrotation Yrotation Zrotation
							End Site
							{
								OFFSET 0.000000 22.029861 0.000000
							}
						}
						JOINT HairD
						{
							OFFSET -10.777400 17.437393 -1.325900
							CHANNELS 3 Xrotation Yrotation Zrotation
							JOINT HairD1
							{
								OFFSET -3.290299 -11.051193 1.062200
								CHANNELS 3 Xrotation Yrotation Zrotation
								End Site
								{
									OFFSET 0.000000 11.579437 0.000000
								}
							}
						}
						JOINT HairB
						{
							OFFSET -10.777400 17.437393 1.467900
							CHANNELS 3 Xrotation Yrotation Zrotation
							JOINT HairB1
							{
								OFFSET -1.561200 -12.956299 3.590200
								CHANNELS 3 Xrotation Yrotation Zrotation
								End Site
								{
									OFFSET 0.000000 13.534866 0.000000
								}
							}
						}
						JOINT HairA
						{
							OFFSET 9.713100 17.437393 1.467900
							CHANNELS 3 Xrotation Yrotation Zrotation
							JOINT HairA1
							{
								OFFSET 1.561200 -12.956299 3.590200
								CHANNELS 3 Xrotation Yrotation Zrotation
								End Site
								{
									OFFSET 0.000000 13.534866 0.000000
								}
							}
						}
						JOINT HairC
						{
							OFFSET 9.713100 17.437393 -1.325900
							CHANNELS 3 Xrotation Yrotation Zrotation
							JOINT HairC1
							{
								OFFSET 3.290300 -11.051193 1.062200
								CHANNELS 3 Xrotation Yrotation Zrotation
								End Site
								{
									OFFSET 0.000000 11.579437 0.000000
								}
							}
						}
					}
				}
				JOINT LeftShoulder
				{
					OFFSET 5.101800 15.108002 -2.763700
					CHANNELS 3 Xrotation Yrotation Zrotation
					JOINT LeftArm
					{
						OFFSET 9.825497 2.506317 -1.597400
						CHANNELS 3 Xrotation Yrotation Zrotation
						JOINT LeftForeArm
						{
							OFFSET 21.966244 0.000000 0.000000
							CHANNELS 3 Xrotation Yrotation Zrotation
							JOINT LeftHand
							{
								OFFSET 33.879036 0.000000 0.000000
								CHANNELS 3 Xrotation Yrotation Zrotation
								JOINT LeftHandThumb1
								{
									OFFSET 6.715286 -2.359680 3.363841
									CHANNELS 3 Xrotation Yrotation Zrotation
									JOINT LeftHandThumb2
									{
										OFFSET 2.507072 -1.447464 1.447461
										CHANNELS 3 Xrotation Yrotation Zrotation
										JOINT LeftHandThumb3
										{
											OFFSET 2.898338 -1.673355 1.673357
											CHANNELS 3 Xrotation Yrotation Zrotation
											End Site
											{
												OFFSET -0.295959 3.727692 -0.131651
											}
										}
									}
								}
								JOINT LeftHandIndex1
								{
									OFFSET 14.190811 -0.254547 3.840278
									CHANNELS 3 Xrotation Yrotation Zrotation
									JOINT LeftHandIndex2
									{
										OFFSET 3.551727 0.000000 -0.000000
										CHANNELS 3 Xrotation Yrotation Zrotation
										JOINT LeftHandIndex3
										{
											OFFSET 2.894196 0.000000 0.000000
											CHANNELS 3 Xrotation Yrotation Zrotation
											End Site
											{
												OFFSET -1.000603 2.690872 0.366626
											}
										}
									}
								}
								JOINT LeftHandMiddle1
								{
									OFFSET 13.776489 0.000000 0.000000
									CHANNELS 3 Xrotation Yrotation Zrotation
									JOINT LeftHandMiddle2
									{
										OFFSET 3.438232 0.000000 0.000000
										CHANNELS 3 Xrotation Yrotation Zrotation
										JOINT LeftHandMiddle3
										{
											OFFSET 3.691551 0.000000 0.000000
											CHANNELS 3 Xrotation Yrotation Zrotation
											End Site
											{
												OFFSET -1.082298 3.499527 0.457670
											}
										}
									}
								}
								JOINT LeftHandRing1
								{
									OFFSET 13.966164 -0.268127 -3.067488
									CHANNELS 3 Xrotation Yrotation Zrotation
									JOINT LeftHandRing2
									{
										OFFSET 3.162567 0.000000 0.000000
										CHANNELS 3 Xrotation Yrotation Zrotation
										JOINT LeftHandRing3
										{
											OFFSET 3.324348 0.000000 0.000000
											CHANNELS 3 Xrotation Yrotation Zrotation
											End Site
											{
												OFFSET -0.861900 3.184998 0.405154
											}
										}
									}
								}
								JOINT LeftHandPinky1
								{
									OFFSET 13.131393 -0.168503 -5.746925
									CHANNELS 3 Xrotation Yrotation Zrotation
									JOINT LeftHandPinky2
									{
										OFFSET 2.849182 0.000000 0.000000
										CHANNELS 3 Xrotation Yrotation Zrotation
										JOINT LeftHandPinky3
										{
											OFFSET 2.805038 0.000000 0.000000
											CHANNELS 3 Xrotation Yrotation Zrotation
											End Site
											{
												OFFSET -0.882500 2.642609 0.325652
											}
										}
									}
								}
							}
							JOINT Left_Sleeve
							{
								OFFSET 6.592125 -0.646545 0.805568
								CHANNELS 3 Xrotation Yrotation Zrotation
								End Site
								{
									OFFSET -0.000179 20.275787 -0.000000
								}
							}
						}
					}
				}
				JOINT RightShoulder
				{
					OFFSET -5.731700 15.108002 -2.763700
					CHANNELS 3 Xrotation Yrotation Zrotation
					JOINT RightArm
					{
						OFFSET -9.825497 2.506317 -1.597400
						CHANNELS 3 Xrotation Yrotation Zrotation
						JOINT RightForeArm
						{
							OFFSET -21.966242 0.000000 0.000000
							CHANNELS 3 Xrotation Yrotation Zrotation
							JOINT RightHand
							{
								OFFSET -33.879032 0.000000 0.000000
								CHANNELS 3 Xrotation Yrotation Zrotation
								JOINT RightHandThumb1
								{
									OFFSET -6.715286 -2.359680 3.363841
									CHANNELS 3 Xrotation Yrotation Zrotation
									JOINT RightHandThumb2
									{
										OFFSET -2.507072 -1.447464 1.447461
										CHANNELS 3 Xrotation Yrotation Zrotation
										JOINT RightHandThumb3
										{
											OFFSET -2.898338 -1.673355 1.673357
											CHANNELS 3 Xrotation Yrotation Zrotation
											End Site
											{
												OFFSET 0.295959 3.727692 -0.131651
											}
										}
									}
								}
								JOINT RightHandIndex1
								{
									OFFSET -14.190811 -0.254547 3.840278
									CHANNELS 3 Xrotation Yrotation Zrotation
									JOINT RightHandIndex2
									{
										OFFSET -3.551727 0.000000 -0.000000
										CHANNELS 3 Xrotation Yrotation Zrotation
										JOINT RightHandIndex3
										{
											OFFSET -2.894196 0.000000 0.000000
											CHANNELS 3 Xrotation Yrotation Zrotation
											End Site
											{
												OFFSET 1.000603 2.690872 0.366626
											}
										}
									}
								}
								JOINT RightHandMiddle1
								{
									OFFSET -13.776489 0.000000 0.000000
									CHANNELS 3 Xrotation Yrotation Zrotation
									JOINT RightHandMiddle2
									{
										OFFSET -3.438232 0.000000 0.000000
										CHANNELS 3 Xrotation Yrotation Zrotation
										JOINT RightHandMiddle3
										{
											OFFSET -3.691551 0.000000 0.000000
											CHANNELS 3 Xrotation Yrotation Zrotation
											End Site
											{
												OFFSET 1.082298 3.499527 0.457670
											}
										}
									}
								}
								JOINT RightHandRing1
								{
									OFFSET -13.966164 -0.268127 -3.067488
									CHANNELS 3 Xrotation Yrotation Zrotation
									JOINT RightHandRing2
									{
										OFFSET -3.162567 0.000000 0.000000
										CHANNELS 3 Xrotation Yrotation Zrotation
										JOINT RightHandRing3
										{
											OFFSET -3.324348 0.000000 0.000000
											CHANNELS 3 Xrotation Yrotation Zrotation
											End Site
											{
												OFFSET 0.861900 3.184998 0.405154
											}
										}
									}
								}
								JOINT RightHandPinky1
								{
									OFFSET -13.131393 -0.168503 -5.746925
									CHANNELS 3 Xrotation Yrotation Zrotation
									JOINT RightHandPinky2
									{
										OFFSET -2.849182 0.000000 0.000000
										CHANNELS 3 Xrotation Yrotation Zrotation
										JOINT RightHandPinky3
										{
											OFFSET -2.805038 0.000000 0.000000
											CHANNELS 3 Xrotation Yrotation Zrotation
											End Site
											{
												OFFSET 0.882500 2.642609 0.325652
											}
										}
									}
								}
							}
							JOINT Right_Sleeve
							{
								OFFSET -6.592125 -0.646545 0.805568
								CHANNELS 3 Xrotation Yrotation Zrotation
								End Site
								{
									OFFSET 0.000179 20.275787 -0.000000
								}
							}
						}
					}
				}
				JOINT Bind_Right_JacketString
				{
					OFFSET -3.534800 11.969597 7.200700
					CHANNELS 3 Xrotation Yrotation Zrotation
					JOINT Bind_Right_JacketString1
					{
						OFFSET -0.319900 -6.102600 2.794100
						CHANNELS 3 Xrotation Yrotation Zrotation
						End Site
						{
							OFFSET 0.000000 6.719452 0.000000
						}
					}
				}
				JOINT Bind_Left_JacketString
				{
					OFFSET 2.904800 11.969597 7.200700
					CHANNELS 3 Xrotation Yrotation Zrotation
					JOINT Bind_Left_JacketString1
					{
						OFFSET 0.364800 -5.904503 3.186800
						CHANNELS 3 Xrotation Yrotation Zrotation
						End Site
						{
							OFFSET 0.000000 6.719513 0.000000
						}
					}
				}
				JOINT HairE
				{
					OFFSET 5.915200 17.612701 -11.592200
					CHANNELS 3 Xrotation Yrotation Zrotation
					JOINT HairE1
					{
						OFFSET 0.289200 -7.171898 -1.284500
						CHANNELS 3 Xrotation Yrotation Zrotation
						End Site
						{
							OFFSET 0.000000 7.291756 0.000000
						}
					}
				}
				JOINT HairF
				{
					OFFSET -0.864800 17.612701 -11.592200
					CHANNELS 3 Xrotation Yrotation Zrotation
					JOINT HairF1
					{
						OFFSET 0.000000 -14.087097 -2.127501
						CHANNELS 3 Xrotation Yrotation Zrotation
						End Site
						{
							OFFSET 0.000000 14.246841 0.000000
						}
					}
				}
				JOINT HairG
				{
					OFFSET -8.087700 17.612701 -11.592200
					CHANNELS 3 Xrotation Yrotation Zrotation
					JOINT HairG1
					{
						OFFSET -0.293600 -6.081398 -0.910100
						CHANNELS 3 Xrotation Yrotation Zrotation
						End Site
						{
							OFFSET 0.000000 6.156120 0.000000
						}
					}
				}
			}
		}
	}
	JOINT Pouch
	{
		OFFSET 0.000000 4.394501 10.847300
		CHANNELS 3 Xrotation Yrotation Zrotation
		End Site
		{
			OFFSET 0.000000 21.880577 0.000000
		}
	}
	JOINT Bag
	{
		OFFSET -13.229000 4.813004 -0.593300
		CHANNELS 3 Xrotation Yrotation Zrotation
		End Site
		{
			OFFSET 0.000000 21.880577 0.000000
		}
	}
	JOINT OccupyGuyFacialAnim_Joint
	{
		OFFSET 1.000000 -70.206398 -1.655000
		CHANNELS 3 Xrotation Yrotation Zrotation
		End Site
		{
			OFFSET 0.000000 21.880577 0.000000
		}
	}
}
MOTION
Frames: 4
Frame Time: 0.033333
-0.058946 62.278290 1.135719 11.281324 -1.130364 -5.473139 0.000000 0.000000 -0.000000 -56.165014 -1.780057 8.462317 128.253904 5.173987 0.402180 3.393150 0.674199 -2.131650 0.000000 -0.000001 0.000000 0.000003 -0.000000 -0.000000 -33.774268 -10.622002 6.988756 57.956580 0.447157 1.339619 -34.920794 2.766403 -7.099087 -0.000000 -0.000000 -0.000000 -0.000002 0.000000 -0.000000 9.994536 1.630843 7.595656 2.029122 -0.047010 0.508499 4.987208 -0.052526 0.186541 -3.841288 -0.341669 -0.277917 -16.135765 0.809280 -3.139614 0.000001 0.000000 -0.000000 0.000001 0.000000 -0.000000 0.000001 0.000000 0.000000 0.000001 0.000000 0.000000 -0.000000 0.000000 0.000000 0.000001 0.000000 0.000000 -0.000000 0.000000 0.000000 0.000001 0.000000 -0.000000 0.000001 0.000000 -0.000000 0.557765 -4.314582 -11.777469 13.923789 -4.817002 -56.121387 -0.000000 -89.999914 -0.000011 3.946670 -2.534492 11.903168 -0.820494 6.623776 -5.864585 14.168506 15.386719 18.402804 0.000003 0.000002 0.000003 9.947304 5.735776 -90.836257 4.054203 5.569211 -72.086397 0.000001 -0.000001 -0.000004 4.883454 8.107994 -80.603377 4.657623 5.728470 -78.210761 0.000003 0.000000 -0.000001 2.753103 7.678661 -78.443527 5.946886 5.850297 -90.939884 0.000003 0.000004 -0.000000 7.311316 13.596505 -78.537244 4.413858 5.672391 -75.756941 -0.000003 -0.000004 0.000000 0.000000 0.000002 -0.000001 0.567968 4.488691 11.813862 -16.187055 25.518739 44.451168 -0.007955 90.272281 0.006729 7.843973 11.318592 -12.809344 5.535803 -3.771082 -3.032821 2.457522 -9.078646 -15.939563 -0.000002 -0.000001 -0.000000 -3.723502 -3.298374 73.104997 3.463115 -4.501801 75.128488 0.000000 -0.000001 0.000004 -3.073203 -4.980256 74.622344 3.766065 -4.571305 78.956987 0.000001 -0.000000 -0.000001 -3.819535 -5.359654 78.849534 3.124233 -4.398190 70.762829 -0.000001 0.000001 0.000000 -1.443970 -6.451728 84.219531 3.515532 -4.515374 75.795067 0.000002 0.000002 -0.000001 0.000004 0.000000 -0.000001 -0.000001 0.000000 -0.000000 -0.000001 0.000000 -0.000000 -0.000001 0.000000 -0.000000 -0.000001 0.000000 -0.000000 -0.000001 0.000000 -0.000000 -0.000001 0.000000 -0.000000 -0.000001 0.000000 -0.000000 -0.000001 0.000000 -0.000000 -0.000001 0.000000 -0.000000 -0.000001 0.000000 -0.000000 0.000000 0.000000 -0.000000 0.000000 0.000000 -0.000000 0.000000 0.000000 -0.000000 
0.930950 63.516701 9.945959 10.282022 -0.367884 -4.848230 0.000001 -0.000000 -0.000000 -74.717700 1.148541 5.851127 114.261599 9.396712 -1.613988 3.428531 3.335996 -2.219073 -0.000002 0.000001 -0.000001 -0.000000 -0.000000 -0.000000 -19.579483 -11.147957 6.334775 50.023008 1.953912 -0.608547 -38.224727 2.312350 -5.951613 -0.000000 0.000000 0.000000 -0.000001 0.000001 0.000000 9.147669 3.082352 6.146001 1.947223 1.048076 -0.160836 4.629529 1.001494 -0.497359 -2.638717 -1.169260 0.259506 -14.465772 -3.047293 -2.378430 0.000001 0.000000 0.000000 0.000001 0.000000 0.000000 0.000001 0.000000 0.000000 0.000001 0.000000 0.000000 -0.000001 0.000000 0.000000 0.000001 0.000000 0.000000 -0.000001 0.000000 0.000000 0.000001 0.000000 0.000000 0.000001 0.000000 0.000000 0.517640 -5.810892 -12.688541 12.349827 1.932531 -49.898285 0.000038 -73.409015 0.000013 9.032491 1.775309 1.502678 -0.817801 6.658980 -5.841885 14.155452 15.361473 18.525076 0.000000 -0.000002 0.000005 10.122538 5.674565 -91.431016 4.089149 5.580348 -72.446013 -0.000001 0.000006 0.000003 4.935726 8.117087 -81.129144 4.698032 5.736699 -78.615436 -0.000001 0.000004 -0.000004 2.725521 7.691914 -78.951687 6.002923 5.849107 -91.489790 -0.000002 0.000000 -0.000003 7.321097 13.593744 -79.158211 4.455086 5.682657 -76.173760 -0.000001 -0.000006 0.000000 0.000001 0.000003 -0.000001 0.599694 5.403162 12.259260 -21.787839 30.313407 48.364371 -0.000255 82.979258 0.000213 9.294322 13.341175 -12.781286 5.612157 -3.872201 -3.078597 2.447888 -9.137334 -16.032390 -0.000001 -0.000001 0.000001 -3.640637 -3.373453 73.512383 3.484955 -4.507522 75.406477 0.000002 -0.000000 -0.000002 -3.091616 -5.026950 75.040276 3.799356 -4.577661 79.374598 -0.000000 0.000000 0.000001 -3.900385 -5.405854 79.290464 3.148066 -4.406398 71.073391 0.000000 0.000000 -0.000001 -1.554821 -6.446045 84.590902 3.543492 -4.522323 76.149970 0.000002 0.000001 0.000001 0.000001 -0.000000 -0.000002 -0.000001 -0.000000 0.000000 -0.000001 -0.000000 0.000000 -0.000001 -0.000000 0.000000 -0.000001 -0.000000 0.000000 -0.000001 -0.000000 0.000000 -0.000001 -0.000000 0.000000 -0.000001 -0.000000 0.000000 -0.000001 -0.000000 0.000000 -0.000001 -0.000000 0.000000 -0.000001 -0.000000 0.000000 0.000001 -0.000000 -0.000000 0.000001 -0.000000 -0.000000 0.000001 -0.000000 -0.000000 
2.235779 65.436775 18.819717 9.145162 -0.289737 -4.525184 -0.000001 -0.000000 -0.000001 -74.495439 3.247450 4.475639 86.920940 9.651765 -4.117638 -1.605728 6.724716 -4.648390 0.000003 0.000002 0.000000 0.000003 -0.000000 -0.000000 -2.774467 -13.446232 4.484375 34.603108 6.460105 -0.909568 -32.709742 2.073415 -2.320451 -0.000000 -0.000000 0.000000 -0.000000 0.000001 -0.000000 7.707436 4.902235 4.657717 1.483906 2.059632 -0.494631 3.858132 1.998907 -0.830857 -1.437997 -2.007859 1.054803 -11.584377 -6.605145 -1.464154 0.000001 -0.000000 0.000000 0.000001 -0.000000 0.000000 0.000001 -0.000000 0.000000 0.000001 -0.000000 0.000000 -0.000000 -0.000000 0.000000 0.000001 -0.000000 0.000000 -0.000000 -0.000000 0.000000 0.000001 -0.000000 0.000000 0.000001 -0.000000 0.000000 0.534805 -5.378069 -12.362129 8.101513 9.312879 -43.701640 0.000006 -59.772536 0.000003 14.199075 6.236164 -4.164567 -0.811321 6.742866 -5.787753 14.124829 15.301290 18.816649 0.000001 -0.000002 -0.000004 10.536491 5.515709 -92.846778 4.172669 5.605952 -73.303018 -0.000001 -0.000002 0.000003 5.060676 8.136864 -82.381965 4.794576 5.755213 -79.579729 0.000001 -0.000000 0.000006 2.659805 7.727136 -80.162372 6.136422 5.844134 -92.800223 0.000000 -0.000000 0.000001 7.344984 13.591557 -80.638217 4.553642 5.705892 -77.167047 0.000000 0.000000 -0.000001 0.000002 -0.000001 0.000000 0.707390 5.782300 12.944759 -24.605941 33.285192 51.990478 0.000003 77.524942 0.000025 9.017323 16.072835 -12.595983 5.813227 -4.138744 -3.197931 2.422521 -9.291537 -16.276920 -0.000001 -0.000001 0.000001 -3.419394 -3.565719 74.586123 3.542543 -4.522093 76.138277 -0.000001 0.000000 0.000000 -3.138743 -5.151802 76.140517 3.887283 -4.593222 80.474197 0.000002 0.000003 0.000001 -4.112250 -5.534336 80.450688 3.211044 -4.427441 71.891067 -0.000001 -0.000002 -0.000000 -1.849435 -6.452800 85.566103 3.617431 -4.539868 77.085904 0.000000 0.000001 0.000002 0.000004 0.000001 0.000001 0.000000 -0.000001 0.000000 0.000000 -0.000001 0.000000 0.000000 -0.000001 0.000000 0.000000 -0.000001 0.000000 0.000000 -0.000001 0.000000 0.000000 -0.000001 0.000000 0.000000 -0.000001 0.000000 0.000000 -0.000001 0.000000 0.000000 -0.000001 0.000000 0.000000 -0.000001 0.000000 -0.000001 -0.000000 -0.000001 -0.000001 -0.000000 -0.000001 -0.000001 -0.000000 -0.000001 
3.636055 66.527504 27.918442 6.949552 -1.236055 -5.564197 -0.000000 0.000000 -0.000000 -63.174872 3.675645 3.992261 53.815535 9.396188 -4.993459 -7.515585 11.594962 -9.819092 0.000001 -0.000001 -0.000000 -0.000001 0.000001 -0.000000 14.718504 -18.422576 3.359422 18.664283 5.491410 1.044470 -22.060741 9.222301 2.340990 -0.000001 -0.000000 -0.000000 -0.000001 -0.000001 -0.000001 6.187086 7.012083 4.561011 1.022114 2.866061 -0.365608 3.071073 2.811556 -0.684681 -0.110514 -2.729499 1.995616 -6.945605 -9.303530 -0.433899 -0.000000 -0.000000 0.000000 -0.000000 -0.000000 0.000000 -0.000000 -0.000000 0.000000 -0.000000 -0.000000 0.000000 0.000001 0.000000 -0.000000 -0.000000 -0.000000 0.000000 0.000001 0.000000 -0.000000 -0.000000 -0.000000 0.000000 -0.000000 -0.000000 0.000000 0.576699 -2.585697 -10.207521 2.661143 15.349231 -36.926052 0.000000 -49.483887 0.000003 13.400533 8.880848 -7.729453 -0.803624 6.843227 -5.722989 14.089022 15.229276 19.165772 0.000000 0.000004 0.000001 11.024308 5.301669 -94.538158 4.273113 5.634966 -74.328584 0.000003 0.000002 -0.000001 5.210701 8.157001 -83.881259 4.910506 5.775226 -80.733710 0.000001 -0.000002 0.000002 2.581333 7.776017 -81.610864 6.295951 5.834197 -94.368202 -0.000001 -0.000002 0.000005 7.375004 13.596934 -82.409968 4.672086 5.731462 -78.355671 0.000001 -0.000000 0.000003 0.000000 0.000000 -0.000003 0.871772 5.727272 14.881620 -25.234935 36.605630 53.695454 -0.000002 73.159304 -0.000003 7.960960 18.479627 -11.621015 6.097811 -4.516644 -3.363792 2.386772 -9.509114 -16.623227 0.000001 0.000000 -0.000000 -3.099098 -3.824220 76.108060 3.624392 -4.541426 77.173788 -0.000000 0.000003 0.000001 -3.202153 -5.333284 77.696947 4.012119 -4.612376 82.030107 0.000001 0.000002 -0.000002 -4.409130 -5.732957 82.090302 3.300649 -4.455649 73.048081 0.000000 -0.000002 -0.000001 -2.275318 -6.580636 86.930912 3.723495 -4.562825 78.422395 -0.000001 0.000000 -0.000001 -0.000002 -0.000000 0.000002 -0.000002 -0.000000 -0.000000 -0.000002 0.000001 -0.000000 -0.000002 -0.000000 -0.000000 -0.000002 -0.000000 -0.000000 -0.000002 -0.000000 -0.000000 -0.000002 0.000001 -0.000000 -0.000002 -0.000000 -0.000000 -0.000002 -0.000000 -0.000000 -0.000002 -0.000000 -0.000000 -0.000002 0.000001 -0.000000 -0.000000 0.000000 -0.000000 -0.000000 0.000000 -0.000000 -0.000000 0.000000 -0.000000 
